<?xml version="1.0" standalone="no"?>
<!DOCTYPE svg PUBLIC "-//W3C//DTD SVG 20010904//EN"
 "http://www.w3.org/TR/2001/REC-SVG-20010904/DTD/svg10.dtd">
<svg version="1.0" xmlns="http://www.w3.org/2000/svg"
 width="201.000000pt" height="180.000000pt" viewBox="0 0 201.000000 180.000000"
 preserveAspectRatio="xMidYMid meet">
<metadata>
Created by potrace 1.10, written by Peter Selinger 2001-2011
</metadata>
<g transform="translate(0.000000,180.000000) scale(0.100000,-0.100000)"
fill="#1e90ff" stroke="none">
<path d="M1410 1641 c-47 -7 -56 -12 -185 -97 -73 -49 -193 -144 -262 -209
-15 -14 -31 -25 -35 -25 -4 0 -36 -28 -71 -62 -35 -35 -108 -106 -163 -158
-114 -109 -154 -158 -154 -188 0 -33 50 -82 90 -88 40 -7 68 12 185 125 39 37
96 91 127 120 l57 53 68 -38 c67 -38 70 -39 168 -38 92 0 105 3 165 33 108 54
119 61 142 92 22 30 42 39 36 17 -5 -20 -133 -138 -149 -138 -8 0 -25 -7 -38
-16 -15 -11 -54 -19 -105 -23 -75 -6 -81 -8 -84 -29 -2 -16 8 -34 34 -60 44
-43 87 -102 80 -109 -3 -3 -46 36 -96 86 -104 104 -164 151 -193 151 -19 0
-71 -40 -172 -135 -27 -25 -80 -66 -116 -91 -57 -37 -74 -44 -117 -44 -90 0
-145 73 -122 160 12 46 29 63 236 255 65 61 129 120 142 132 12 13 31 27 42
33 13 7 20 21 20 40 0 23 -12 39 -56 77 -107 93 -265 163 -369 163 -156 0
-311 -109 -398 -281 -26 -53 -32 -78 -35 -147 -4 -77 -2 -87 31 -155 28 -58
61 -100 177 -222 79 -82 207 -217 284 -299 375 -397 395 -414 460 -384 52 23
42 73 -27 141 -23 23 -77 79 -120 125 -73 79 -92 112 -65 112 7 0 96 -85 198
-190 174 -178 188 -190 222 -190 28 0 42 6 57 26 39 50 35 55 -186 283 -142
145 -185 201 -155 201 5 0 62 -57 128 -127 273 -291 341 -350 383 -335 51 17
65 66 33 113 -18 28 -93 112 -205 230 -78 83 -96 109 -72 109 8 0 15 -4 15 -9
0 -5 22 -31 48 -57 27 -27 52 -57 55 -67 4 -9 15 -21 24 -24 10 -4 33 -22 52
-40 64 -62 172 -51 156 17 -8 36 -36 89 -62 118 -30 32 -29 38 5 45 31 6 186
154 273 262 31 39 74 102 95 140 36 65 39 76 39 150 0 73 -4 87 -38 156 -41
80 -119 179 -143 179 -10 0 -14 -14 -14 -54 0 -58 -7 -86 -21 -86 -5 0 -9 43
-9 95 0 91 -1 96 -30 129 -45 50 -130 66 -260 47z m-273 -898 c41 -48 24 -59
-26 -17 -17 14 -31 30 -31 35 0 19 35 8 57 -18z m281 -25 c16 -16 15 -39 -1
-32 -7 2 -18 13 -25 24 -10 16 -10 20 1 20 7 0 18 -5 25 -12z m-220 -56 c2 -7
-2 -10 -12 -6 -9 3 -16 11 -16 16 0 13 23 5 28 -10z"/>
<path d="M442 560 c-52 -21 -54 -99 -3 -120 41 -17 108 -5 116 21 7 20 0 33
-44 82 -27 29 -34 31 -69 17z"/>
<path d="M517 381 c-44 -46 -57 -66 -57 -89 0 -35 39 -72 75 -72 33 0 145 96
145 124 0 26 -65 96 -89 96 -9 0 -42 -27 -74 -59z"/>
<path d="M672 270 c-34 -46 -29 -86 15 -109 34 -18 68 -13 97 14 34 32 33 50
-8 91 -43 43 -75 44 -104 4z"/>
</g>
</svg>
