<?xml version="1.0" standalone="no"?>
<!DOCTYPE svg PUBLIC "-//W3C//DTD SVG 20010904//EN"
 "http://www.w3.org/TR/2001/REC-SVG-20010904/DTD/svg10.dtd">
<svg version="1.0" xmlns="http://www.w3.org/2000/svg"
 width="300.000000pt" height="96.000000pt" viewBox="0 0 300.000000 96.000000"
 preserveAspectRatio="xMidYMid meet">
<metadata>
Created by potrace 1.10, written by Peter Selinger 2001-2011
</metadata>
<g transform="translate(0.000000,96.000000) scale(0.050000,-0.050000)"
fill="#00ced1" stroke="none">
<path d="M282 1678 c-50 -115 -69 -207 -71 -350 -2 -98 -13 -158 -37 -195 -19
-29 -41 -81 -47 -114 -8 -40 -32 -71 -70 -90 -95 -50 -66 -66 120 -65 277 1
451 -138 511 -407 28 -124 116 -85 155 68 27 105 185 295 246 295 15 0 31 10
35 22 5 14 81 22 212 21 208 0 257 21 143 60 -58 21 -119 104 -119 164 0 15
-13 39 -30 53 -22 18 -30 66 -30 176 0 164 -64 399 -115 419 -34 13 -190 -151
-226 -236 -18 -45 -33 -57 -57 -46 -56 26 -245 32 -268 9 -36 -36 -69 -25 -82
26 -14 55 -185 252 -219 252 -13 0 -36 -28 -51 -62z m936 -310 c1 -45 -3 -87
-10 -93 -9 -10 -108 77 -108 94 0 2 15 53 33 112 l32 109 26 -70 c14 -38 27
-107 27 -152z m-842 140 c3 -21 16 -59 29 -84 19 -39 15 -53 -31 -99 -70 -70
-80 -53 -63 104 13 127 50 172 65 79z m584 -306 c0 -28 -173 -162 -210 -162
-41 0 -189 121 -190 155 0 18 53 25 200 25 110 0 200 -8 200 -18z m-493 -211
c94 -52 213 -194 213 -254 0 -116 107 -163 130 -57 41 186 272 397 413 376 83
-12 59 -52 -52 -87 -164 -51 -301 -207 -365 -418 -27 -85 -61 -85 -98 2 -123
284 -212 376 -423 437 -25 7 -45 27 -45 44 0 41 113 20 227 -43z"/>
<path d="M3120 1249 c0 -16 14 -35 30 -42 34 -13 46 -407 12 -407 -10 0 -23
-13 -29 -30 -10 -24 8 -30 91 -30 95 0 100 2 72 35 -42 49 -55 94 -37 124 12
18 36 -1 84 -66 67 -92 194 -141 164 -63 -6 17 -23 30 -37 30 -14 0 -50 33
-81 73 l-56 73 61 55 c34 30 73 58 87 63 49 16 -3 56 -72 56 -63 0 -69 -5 -69
-58 0 -32 -11 -62 -25 -67 -14 -6 -33 -13 -43 -17 -10 -5 -16 60 -14 147 l5
155 -72 0 c-50 0 -71 -9 -71 -31z"/>
<path d="M3860 1262 c0 -9 14 -28 30 -42 46 -38 43 -390 -4 -436 -38 -38 13
-54 128 -40 50 6 51 8 20 40 -28 27 -34 74 -34 265 l0 231 -70 0 c-38 0 -70
-8 -70 -18z"/>
<path d="M4080 1252 c0 -15 14 -33 30 -39 44 -17 44 -413 0 -413 -16 0 -30
-13 -30 -30 0 -22 23 -30 90 -30 67 0 90 8 90 30 0 17 -13 30 -30 30 -25 0
-30 40 -30 240 l0 240 -60 0 c-38 0 -60 -10 -60 -28z"/>
<path d="M1770 1100 c-7 -11 2 -34 19 -52 42 -42 43 -239 1 -255 -64 -25 -25
-53 73 -53 99 0 102 2 70 37 -47 52 -46 235 3 261 73 39 104 -8 104 -159 l0
-139 60 0 c40 0 60 10 60 30 0 17 -13 30 -30 30 -23 0 -30 24 -30 99 0 105 42
172 94 152 16 -6 33 -11 38 -11 4 0 8 -67 8 -150 l0 -150 69 0 c54 0 67 7 58
30 -6 17 -19 30 -29 30 -10 0 -18 52 -18 116 0 174 -148 280 -223 159 -11 -17
-24 -14 -52 11 -42 38 -96 45 -115 14 -8 -13 -25 -13 -50 0 -48 26 -94 26
-110 0z"/>
<path d="M2475 1085 c-61 -38 -88 -130 -66 -220 42 -168 283 -179 329 -15 53
193 -104 333 -263 235z m145 -45 c91 -49 63 -240 -36 -240 -74 0 -104 33 -104
117 0 109 63 164 140 123z"/>
<path d="M2849 1067 c-59 -63 -67 -201 -17 -278 38 -57 204 -72 245 -22 33 39
12 49 -84 38 -81 -9 -88 -6 -112 53 -50 121 68 266 136 165 39 -59 63 -54 63
15 0 96 -151 115 -231 29z"/>
<path d="M3620 1105 c-107 -41 -140 -240 -54 -322 54 -50 214 -61 251 -16 33
39 12 49 -84 38 -63 -7 -95 -1 -119 24 -68 68 -43 91 96 91 126 0 130 2 130
51 0 99 -120 173 -220 134z m128 -83 c33 -36 31 -38 -42 -47 -109 -13 -136 1
-94 47 44 48 93 48 136 0z"/>
<path d="M4489 1071 c-156 -156 44 -430 229 -313 46 29 4 66 -59 52 -107 -24
-139 1 -139 108 0 122 82 187 135 107 41 -61 65 -56 65 13 0 94 -149 115 -231
33z"/>
<path d="M4881 1105 c-102 -40 -138 -237 -60 -321 58 -63 215 -62 268 1 130
151 -27 392 -208 320z m138 -89 c80 -85 35 -216 -74 -216 -46 0 -63 11 -72 45
-45 167 48 276 146 171z"/>
<path d="M5168 1097 c-6 -9 4 -31 21 -49 42 -42 43 -239 1 -255 -64 -25 -25
-53 73 -53 97 0 101 2 72 35 -46 51 -52 217 -10 259 63 62 115 -14 115 -167
l0 -127 60 0 c63 0 82 33 30 53 -50 19 -41 220 11 248 72 38 99 -8 99 -163 l0
-138 69 0 c54 0 67 7 58 30 -6 17 -19 30 -29 30 -10 0 -18 46 -18 101 0 186
-111 285 -209 187 -27 -27 -37 -28 -65 -5 -36 30 -261 42 -278 14z"/>
<path d="M4308 814 c-32 -37 -11 -74 44 -74 51 0 63 37 24 76 -30 30 -40 29
-68 -2z"/>
<path d="M0 781 c0 -10 24 -31 54 -45 32 -15 60 -50 69 -86 159 -601 1035
-624 1256 -32 38 101 54 122 103 132 99 22 64 50 -62 50 -115 0 -120 -2 -120
-51 0 -79 -68 -211 -153 -296 -295 -295 -802 -170 -920 227 l-36 120 -95 0
c-53 0 -96 -9 -96 -19z"/>
</g>
</svg>
