<?xml version="1.0" standalone="no"?>
<!DOCTYPE svg PUBLIC "-//W3C//DTD SVG 20010904//EN"
 "http://www.w3.org/TR/2001/REC-SVG-20010904/DTD/svg10.dtd">
<svg version="1.0" xmlns="http://www.w3.org/2000/svg"
 width="260.000000pt" height="71.000000pt" viewBox="0 0 260.000000 71.000000"
 preserveAspectRatio="xMidYMid meet">
<metadata>
Created by potrace 1.10, written by Peter Selinger 2001-2011
</metadata>
<g transform="translate(0.000000,71.000000) scale(0.050000,-0.050000)"
fill="#6495ed" stroke="none">
<path d="M390 1148 c-192 -100 -245 -273 -128 -420 136 -173 519 -548 558
-548 60 0 48 44 -32 121 -39 38 -81 87 -92 109 -11 22 43 -22 120 -98 96 -93
151 -134 172 -125 55 21 36 61 -88 183 -66 65 -120 128 -119 139 0 12 66 -49
148 -134 92 -97 163 -155 189 -155 68 0 49 55 -58 168 -55 58 -100 112 -100
119 0 7 33 -23 72 -67 102 -113 225 -106 142 8 -24 33 -15 48 79 137 194 183
222 314 101 468 l-44 56 -13 -60 c-12 -59 -12 -58 -15 12 -7 235 -281 139
-657 -232 -192 -188 -128 -286 71 -109 75 67 123 96 143 87 109 -48 227 -31
324 45 62 48 61 47 -8 -20 -51 -50 -93 -72 -134 -72 -61 0 -96 -28 -61 -50 11
-7 30 -32 43 -56 13 -24 -15 -6 -63 41 -106 105 -102 105 -224 -5 -101 -90
-167 -111 -212 -66 -52 52 -24 107 130 249 177 162 177 168 0 256 -118 59
-161 63 -244 19z"/>
<path d="M1593 987 c-33 -34 -11 -87 36 -87 56 0 76 23 59 68 -12 32 -70 43
-95 19z"/>
<path d="M2804 745 c6 -247 7 -255 51 -261 42 -6 45 1 45 101 0 226 125 242
136 17 6 -115 9 -124 50 -118 40 5 45 19 50 143 8 179 -25 223 -151 205 l-85
-11 0 89 c0 83 -4 90 -51 90 l-50 0 5 -255z"/>
<path d="M3227 970 c-7 -18 -3 -42 8 -53 33 -33 95 -11 95 33 0 51 -85 67
-103 20z"/>
<path d="M2595 926 c-19 -5 -35 -22 -35 -38 0 -16 -13 -34 -30 -41 -16 -6 -30
-27 -30 -47 0 -20 14 -41 30 -47 22 -9 30 -42 30 -120 0 -123 28 -159 114
-149 67 7 87 66 27 82 -60 15 -61 194 -1 194 23 0 40 13 40 32 0 17 -18 36
-40 42 -26 7 -40 27 -40 58 0 49 -3 50 -65 34z"/>
<path d="M1576 635 c-6 -191 -9 -206 -52 -225 -60 -26 -48 -78 20 -86 108 -13
136 48 136 296 l0 220 -49 0 c-49 0 -50 -2 -55 -205z"/>
<path d="M1825 805 c-92 -72 -75 -256 27 -302 144 -66 288 14 288 161 0 152
-190 237 -315 141z m196 -106 c27 -104 -51 -181 -117 -115 -26 26 -33 140 -10
164 33 32 114 1 127 -49z"/>
<path d="M2232 803 c-54 -61 -34 -127 53 -170 97 -47 95 -73 -5 -73 -67 0 -80
-7 -80 -40 0 -34 13 -40 86 -40 174 0 238 133 97 203 -36 19 -72 39 -79 46
-23 23 44 50 93 38 38 -10 46 -5 40 25 -11 57 -156 64 -205 11z"/>
<path d="M3234 828 c-20 -21 -17 -292 4 -325 52 -83 92 -15 92 157 0 168 -35
229 -96 168z"/>
<path d="M3658 782 c-118 -119 -37 -302 134 -302 79 0 88 5 88 47 0 40 -8 46
-50 38 -65 -13 -110 26 -110 93 0 68 33 102 101 102 62 0 80 14 65 52 -20 54
-162 35 -228 -30z"/>
<path d="M3990 776 c-103 -122 -16 -296 149 -296 108 0 163 51 175 164 21 187
-202 278 -324 132z m214 -66 c44 -98 -50 -196 -120 -126 -13 13 -24 47 -24 76
0 102 103 138 144 50z"/>
<path d="M4404 665 c6 -164 9 -175 51 -181 42 -6 45 0 45 112 0 215 114 233
124 20 6 -119 9 -126 56 -126 47 0 50 7 56 126 10 213 124 186 124 -30 0 -100
3 -106 50 -106 49 0 50 4 50 147 0 194 -76 266 -200 189 -31 -20 -44 -20 -64
0 -30 30 -120 32 -150 2 -15 -15 -25 -15 -35 0 -7 12 -36 22 -63 22 -49 0 -50
0 -44 -175z"/>
<path d="M3427 550 c-7 -18 -3 -42 8 -53 33 -33 95 -11 95 33 0 51 -85 67
-103 20z"/>
<path d="M420 420 c0 -29 13 -40 50 -40 55 0 63 19 26 56 -37 37 -76 29 -76
-16z"/>
<path d="M493 343 c-44 -49 -42 -103 4 -103 59 0 114 72 83 110 -32 39 -47 38
-87 -7z"/>
<path d="M587 249 c-7 -19 -1 -41 15 -51 40 -25 68 -11 68 33 0 49 -66 63 -83
18z"/>
</g>
</svg>
