<?xml version="1.0" encoding="iso-8859-1"?>
<!-- Generator: Adobe Illustrator 19.0.0, SVG Export Plug-In . SVG Version: 6.00 Build 0)  -->
<svg version="1.1" id="Capa_1" xmlns="http://www.w3.org/2000/svg" xmlns:xlink="http://www.w3.org/1999/xlink" x="0px" y="0px"
	 viewBox="0 0 512 512" style="enable-background:new 0 0 512 512;" xml:space="preserve">
<g>
	<path style="fill:#FFFFFF;" d="M141.218,219.284c14.262-2.975,29.022-2.586,43.108,1.138l4.511-4.863l-0.25-0.271
		c-19.137-9.581-40.572-13.617-61.882-11.652c-36.22,4.262-57.786,44.614-42.96,80.498c14.694,32.86,34.924,62.95,59.807,88.959
		c-20.965-21.884-37.274-47.793-47.937-76.16C84.8,265.373,107.689,226.447,141.218,219.284z"/>
	<path style="fill:#FFFFFF;" d="M341.203,280.048l56.983-56.983c-25.829-7.682-49.228-21.919-67.922-41.327
		c-19.471-18.895-33.383-42.772-40.221-69.028l-58.07,58.07l-47.374,47.374c5.946,24.508,21.961,46.239,42.486,66.764
		c18.221,19.678,41.22,34.313,66.764,42.486L341.203,280.048z"/>
	<path style="fill:#FFFFFF;" d="M326.359,47.013c-7.379-15.496-9.212-27.385-3.744-32.852
		c-48.604,48.605-38.142,119.662,12.139,169.943C298.213,147.562,292.302,92.941,326.359,47.013z"/>
</g>
<path style="fill:#D4E1F4;" d="M384.888,127.113c-40.8-40.8-63.005-84.745-49.596-98.152
	c-48.605,48.605-45.827,111.976-5.028,152.777s101.137,46.611,149.742-1.994l-0.619-0.645
	C462.871,186.544,422.567,164.793,384.888,127.113z"/>
<path style="fill:#FFFFFF;" d="M338.487,34.981c12.693-12.694,52.333,6.135,90.685,42.304
	c-48.139-46.364-95.941-73.211-108.767-60.385c-12.834,12.833,14.052,60.681,60.463,108.846
	C344.65,87.368,325.785,47.683,338.487,34.981z"/>
<path style="fill:#7FACFA;" d="M434.647,82.446c36.169,38.352,54.997,77.991,42.304,90.685c-12.695,12.694-52.34-6.14-90.696-42.315
	c48.142,46.37,95.951,73.223,108.779,60.396C507.859,178.387,481.012,130.585,434.647,82.446z"/>
<polygon style="fill:#D4E1F4;" points="8.585,503.417 117.834,345.611 166.391,394.167 "/>
<path style="fill:#E3E7F2;" d="M325.203,264.049l56.983-56.983c-19.712-2.196-38.058-11.145-51.923-25.328
	c-14.242-14.152-22.85-32.999-24.221-53.029l-58.07,58.07l-47.374,47.374c2.271,19.607,11.703,37.685,26.487,50.764
	c13.33,14.459,31.28,23.825,50.764,26.487L325.203,264.049z"/>
<path style="fill:#FFFFFF;" d="M243.626,191.232l50.41-50.41c-3.527-7.603-6.319-15.526-8.339-23.659l-58.07,58.07l-47.374,47.374
	c5.946,24.508,21.961,46.239,42.486,66.764c-14.783-13.079-24.215-31.157-26.487-50.764L243.626,191.232z"/>
<path style="fill:#7FACFA;" d="M370.721,218.64l-49.862,49.862l-47.355,47.356c-19.485-2.662-37.434-12.027-50.764-26.487
	c18.221,19.678,41.22,34.313,66.763,42.486l47.356-47.356l56.984-56.983C385.875,225.285,378.134,222.313,370.721,218.64
	L370.721,218.64z"/>
<g>
	<path style="fill:#D4E1F4;" d="M295.649,372.134c3.831-19.336,11.935-28.413,4.773-48.97l-15.732-4.919
		c-22.152-5.032-42.256-16.669-57.651-33.374c-17.025-15.135-28.727-35.349-33.374-57.651l-4.603-15.417l-0.225-0.225
		c-20.678-7.263-30.067,0.378-49.511,4.232c-36.149,7.164-60.827,46.09-49.168,77.647c11.724,28.716,29.329,54.659,51.684,76.16
		c21.502,22.353,47.445,39.959,76.16,51.684C249.559,432.961,288.485,408.283,295.649,372.134z"/>
	<polygon style="fill:#D4E1F4;" points="369.388,288.363 369.151,288.118 369.368,288.345 	"/>
</g>
<g>
	<path style="fill:#7FACFA;" d="M296.869,316.997l-5.082,5.082c3.538,14.963,3.856,30.507,0.931,45.602
		c-7.164,36.148-46.09,60.827-77.647,49.168c-28.716-11.724-54.659-29.329-76.16-51.684c25.629,26.56,55.743,48.389,88.959,64.481
		c16.768,7.592,36.165,6.652,52.119-2.528c15.954-9.18,26.516-25.477,28.378-43.79C310.339,360.595,306.377,337.74,296.869,316.997
		L296.869,316.997z"/>
	<path style="fill:#7FACFA;" d="M497.074,191.628c-6.199,2.255-16.179,0.03-28.473-5.733c-46.221,36.66-100.181,28.84-137.669-8.647
		c50.281,50.28,118.303,63.777,166.908,15.174L497.074,191.628z"/>
</g>
<ellipse transform="matrix(-0.7071 -0.7071 0.7071 -0.7071 625.7551 464.9096)" style="fill:#E3E7F2;" cx="409.164" cy="102.857" rx="103.171" ry="34.33"/>
<g>
	<path style="fill:#428DFF;" d="M490.967,205.671c-13.913-1.325-27.279-6.089-38.893-13.864
		c-26.756-16.426-51.363-36.119-73.253-58.625c-22.506-21.89-42.2-46.496-58.626-73.253c-15.172-26.203-17.913-44.434-8.14-54.199
		c9.774-9.774,28.005-7.033,54.199,8.14c26.76,16.421,51.368,36.115,73.252,58.626c22.511,21.885,42.205,46.492,58.625,73.252
		c15.172,26.195,17.905,44.426,8.14,54.199l0,0C502.172,203.873,496.638,205.943,490.967,205.671z M327.463,17.162
		c-1.138-0.13-2.285,0.118-3.269,0.704c-1.14,1.14-2.64,10.159,10.855,33.462c15.676,25.465,34.457,48.883,55.909,69.715
		c20.833,21.453,44.25,40.234,69.715,55.909c23.278,13.479,32.296,11.995,33.462,10.855l0,0c1.14-1.14,2.64-10.159-10.855-33.462
		c-15.676-25.465-34.457-48.882-55.91-69.715c-20.832-21.453-44.249-40.234-69.715-55.91
		C348.664,22.502,338.308,18.538,327.463,17.162L327.463,17.162z"/>
	<path style="fill:#428DFF;" d="M8.585,512c-3.193-0.001-6.121-1.773-7.602-4.601c-1.482-2.828-1.271-6.244,0.544-8.87
		l109.246-157.804c1.448-2.093,3.752-3.435,6.287-3.663c2.535-0.228,5.04,0.681,6.84,2.482l48.558,48.558
		c1.801,1.799,2.71,4.305,2.481,6.84s-1.57,4.838-3.663,6.287L13.471,510.475C12.036,511.469,10.331,512.001,8.585,512z
		 M119.037,358.956l-76.53,110.537l110.537-76.53L119.037,358.956z"/>
	<path style="fill:#428DFF;" d="M427.019,235.772c-4.584-0.001-9.163-0.284-13.713-0.847c-34.088-5.447-65.418-22.012-89.112-47.117
		c-25.265-24.099-41.391-56.214-45.624-90.872c-3.239-33.907,9.077-67.453,33.487-91.207l0,0c2.169-2.168,5.328-3.015,8.29-2.221
		c2.961,0.794,5.275,3.107,6.068,6.068c0.794,2.961-0.053,6.122-2.221,8.29c-1.14,1.14-2.632,10.159,10.855,33.462
		c15.676,25.465,34.457,48.883,55.909,69.715l0,0c49.229,49.229,91.819,70.914,102.515,67.016c3.182-1.167,6.751-0.345,9.103,2.095
		l0.762,0.788c3.258,3.367,3.213,8.725-0.101,12.037C483.35,223.823,455.828,235.664,427.019,235.772L427.019,235.772z
		 M309.231,36.592c-10.932,17.526-15.707,38.197-13.571,58.743c3.866,30.674,18.237,59.062,40.67,80.336
		c20.986,22.389,48.775,37.226,79.053,42.213c21.504,2.858,43.3-2.435,61.099-14.837c-27.653-8.6-65.977-38.173-97.662-69.866
		c-22.506-21.89-42.199-46.496-58.625-73.253C315.771,52.534,312.098,44.717,309.231,36.592L309.231,36.592z"/>
	<path style="fill:#428DFF;" d="M293.849,335.989c-0.764-0.001-1.525-0.103-2.263-0.302c-26.995-8.546-51.309-23.948-70.57-44.702
		c-24.837-24.828-39.061-47.326-44.761-70.804c-0.709-2.911,0.152-5.98,2.271-8.097l105.449-105.44
		c2.194-2.196,5.403-3.036,8.391-2.196c2.988,0.84,5.29,3.228,6.019,6.244c6.463,24.725,19.588,47.201,37.946,64.979
		c17.643,18.347,39.729,31.82,64.116,39.111c2.951,0.807,5.25,3.122,6.034,6.079s-0.064,6.108-2.228,8.27L299.919,333.475
		C298.31,335.087,296.127,335.991,293.849,335.989z M194.185,220.7c7.985,22.305,21.373,42.284,38.968,58.147
		c16.144,17.294,36.089,30.598,58.257,38.86l43.722-43.73l0,0l47.158-47.158c-21.839-8.877-41.616-22.156-58.097-39.011
		c-16.901-16.59-29.947-36.693-38.215-58.886L194.185,220.7z"/>
	<path style="fill:#428DFF;" d="M293.849,335.989c-0.764-0.001-1.525-0.103-2.263-0.302c-26.995-8.546-51.309-23.948-70.57-44.702
		c-24.837-24.828-39.061-47.326-44.761-70.804c-0.709-2.911,0.152-5.98,2.271-8.097l105.449-105.44
		c2.194-2.196,5.403-3.036,8.391-2.196c2.988,0.84,5.29,3.228,6.019,6.244c6.463,24.725,19.588,47.201,37.946,64.979
		c17.643,18.347,39.729,31.82,64.116,39.111c2.951,0.807,5.25,3.122,6.034,6.079s-0.064,6.108-2.228,8.27L299.919,333.475
		C298.31,335.087,296.127,335.991,293.849,335.989z M194.185,220.7c7.985,22.305,21.373,42.284,38.968,58.147
		c16.144,17.294,36.089,30.598,58.257,38.86l43.722-43.73l0,0l47.158-47.158c-21.839-8.877-41.616-22.156-58.097-39.011
		c-16.901-16.59-29.947-36.693-38.215-58.886L194.185,220.7z"/>
	<path style="fill:#428DFF;" d="M254.545,447.817c-9.393-0.023-18.675-2.026-27.242-5.876
		c-34.176-16.52-65.163-38.949-91.534-66.254c-27.306-26.37-49.733-57.361-66.245-91.542c-8.711-19.27-7.623-41.554,2.921-59.884
		s29.261-30.473,50.298-32.631c24.342-2.118,48.818,2.119,71.032,12.297c1.005,0.428,1.918,1.046,2.691,1.819
		c3.426,3.384,3.545,8.877,0.269,12.405l-2.548,2.548c7.985,22.305,21.373,42.284,38.968,58.147
		c16.144,17.294,36.089,30.598,58.257,38.86l2.322-2.322c2.017-2.016,4.903-2.899,7.702-2.356c2.799,0.543,5.146,2.44,6.264,5.064
		c10.068,22.1,14.248,46.428,12.138,70.62l0,0C316.366,422.201,288.212,447.688,254.545,447.817L254.545,447.817z M135.392,208.118
		c-3.604-0.002-7.205,0.191-10.788,0.578c-15.585,1.565-29.461,10.545-37.275,24.12s-8.606,30.085-2.13,44.347
		c15.655,32.262,36.884,61.507,62.708,86.387c24.884,25.822,54.128,47.053,86.387,62.716c14.264,6.473,30.774,5.677,44.35-2.137
		c13.576-7.815,22.557-21.691,24.125-37.276c1.593-17.339-0.686-34.815-6.672-51.166c-1.477,0.402-3.034,0.402-4.509,0
		c-26.995-8.546-51.309-23.948-70.57-44.702c-24.837-24.828-39.061-47.326-44.761-70.804c-0.371-1.519-0.319-3.11,0.151-4.602
		C163.252,210.799,149.385,208.276,135.392,208.118z"/>
</g>
<g>
</g>
<g>
</g>
<g>
</g>
<g>
</g>
<g>
</g>
<g>
</g>
<g>
</g>
<g>
</g>
<g>
</g>
<g>
</g>
<g>
</g>
<g>
</g>
<g>
</g>
<g>
</g>
<g>
</g>
</svg>
